<svg width="1000" height="1000" xmlns="http://www.w3.org/2000/svg"><line stroke="black" x1="1000" x2="500" y1="1000" y2="0" ></line><line stroke="black" x1="0" x2="500" y1="1000" y2="0" ></line><line stroke="black" x1="0" x2="1000" y1="1000" y2="1000" ></line><line stroke="black" x1="250" x2="750" y1="500" y2="500" ></line><line stroke="black" x1="250" x2="500" y1="500" y2="1000" ></line><line stroke="black" x1="750" x2="500" y1="500" y2="1000" ></line><line stroke="black" x1="750" x2="500" y1="500" y2="0" ></line><line stroke="black" x1="250" x2="500" y1="500" y2="0" ></line><line stroke="black" x1="250" x2="750" y1="500" y2="500" ></line><line stroke="black" x1="375" x2="625" y1="250" y2="250" ></line><line stroke="black" x1="375" x2="500" y1="250" y2="500" ></line><line stroke="black" x1="625" x2="500" y1="250" y2="500" ></line><line stroke="black" x1="625" x2="500" y1="250" y2="0" ></line><line stroke="black" x1="375" x2="500" y1="250" y2="0" ></line><line stroke="black" x1="375" x2="625" y1="250" y2="250" ></line><line stroke="black" x1="437.5" x2="562.5" y1="125" y2="125" ></line><line stroke="black" x1="437.5" x2="500" y1="125" y2="250" ></line><line stroke="black" x1="562.5" x2="500" y1="125" y2="250" ></line><line stroke="black" x1="562.5" x2="500" y1="125" y2="0" ></line><line stroke="black" x1="437.5" x2="500" y1="125" y2="0" ></line><line stroke="black" x1="437.5" x2="562.5" y1="125" y2="125" ></line><line stroke="black" x1="468.75" x2="531.25" y1="62.5" y2="62.5" ></line><line stroke="black" x1="468.75" x2="500" y1="62.5" y2="125" ></line><line stroke="black" x1="531.25" x2="500" y1="62.5" y2="125" ></line><g transform="translate(500,62.5)" ><g fill="transparent" ><g stroke="black" ><ellipse rx="10" ry="10" ></ellipse></g></g></g><line stroke="black" x1="500" x2="437.5" y1="250" y2="125" ></line><line stroke="black" x1="375" x2="437.5" y1="250" y2="125" ></line><line stroke="black" x1="375" x2="500" y1="250" y2="250" ></line><line stroke="black" x1="406.25" x2="468.75" y1="187.5" y2="187.5" ></line><line stroke="black" x1="406.25" x2="437.5" y1="187.5" y2="250" ></line><line stroke="black" x1="468.75" x2="437.5" y1="187.5" y2="250" ></line><g transform="translate(437.5,187.5)" ><g fill="transparent" ><g stroke="black" ><ellipse rx="10" ry="10" ></ellipse></g></g></g><line stroke="black" x1="625" x2="562.5" y1="250" y2="125" ></line><line stroke="black" x1="500" x2="562.5" y1="250" y2="125" ></line><line stroke="black" x1="500" x2="625" y1="250" y2="250" ></line><line stroke="black" x1="531.25" x2="593.75" y1="187.5" y2="187.5" ></line><line stroke="black" x1="531.25" x2="562.5" y1="187.5" y2="250" ></line><line stroke="black" x1="593.75" x2="562.5" y1="187.5" y2="250" ></line><g transform="translate(562.5,187.5)" ><g fill="transparent" ><g stroke="black" ><ellipse rx="10" ry="10" ></ellipse></g></g></g><g transform="translate(500,125)" ><g fill="transparent" ><g stroke="black" ><ellipse rx="20" ry="20" ></ellipse></g></g></g><line stroke="black" x1="500" x2="375" y1="500" y2="250" ></line><line stroke="black" x1="250" x2="375" y1="500" y2="250" ></line><line stroke="black" x1="250" x2="500" y1="500" y2="500" ></line><line stroke="black" x1="312.5" x2="437.5" y1="375" y2="375" ></line><line stroke="black" x1="312.5" x2="375" y1="375" y2="500" ></line><line stroke="black" x1="437.5" x2="375" y1="375" y2="500" ></line><line stroke="black" x1="437.5" x2="375" y1="375" y2="250" ></line><line stroke="black" x1="312.5" x2="375" y1="375" y2="250" ></line><line stroke="black" x1="312.5" x2="437.5" y1="375" y2="375" ></line><line stroke="black" x1="343.75" x2="406.25" y1="312.5" y2="312.5" ></line><line stroke="black" x1="343.75" x2="375" y1="312.5" y2="375" ></line><line stroke="black" x1="406.25" x2="375" y1="312.5" y2="375" ></line><g transform="translate(375,312.5)" ><g fill="transparent" ><g stroke="black" ><ellipse rx="10" ry="10" ></ellipse></g></g></g><line stroke="black" x1="375" x2="312.5" y1="500" y2="375" ></line><line stroke="black" x1="250" x2="312.5" y1="500" y2="375" ></line><line stroke="black" x1="250" x2="375" y1="500" y2="500" ></line><line stroke="black" x1="281.25" x2="343.75" y1="437.5" y2="437.5" ></line><line stroke="black" x1="281.25" x2="312.5" y1="437.5" y2="500" ></line><line stroke="black" x1="343.75" x2="312.5" y1="437.5" y2="500" ></line><g transform="translate(312.5,437.5)" ><g fill="transparent" ><g stroke="black" ><ellipse rx="10" ry="10" ></ellipse></g></g></g><line stroke="black" x1="500" x2="437.5" y1="500" y2="375" ></line><line stroke="black" x1="375" x2="437.5" y1="500" y2="375" ></line><line stroke="black" x1="375" x2="500" y1="500" y2="500" ></line><line stroke="black" x1="406.25" x2="468.75" y1="437.5" y2="437.5" ></line><line stroke="black" x1="406.25" x2="437.5" y1="437.5" y2="500" ></line><line stroke="black" x1="468.75" x2="437.5" y1="437.5" y2="500" ></line><g transform="translate(437.5,437.5)" ><g fill="transparent" ><g stroke="black" ><ellipse rx="10" ry="10" ></ellipse></g></g></g><g transform="translate(375,375)" ><g fill="transparent" ><g stroke="black" ><ellipse rx="20" ry="20" ></ellipse></g></g></g><line stroke="black" x1="750" x2="625" y1="500" y2="250" ></line><line stroke="black" x1="500" x2="625" y1="500" y2="250" ></line><line stroke="black" x1="500" x2="750" y1="500" y2="500" ></line><line stroke="black" x1="562.5" x2="687.5" y1="375" y2="375" ></line><line stroke="black" x1="562.5" x2="625" y1="375" y2="500" ></line><line stroke="black" x1="687.5" x2="625" y1="375" y2="500" ></line><line stroke="black" x1="687.5" x2="625" y1="375" y2="250" ></line><line stroke="black" x1="562.5" x2="625" y1="375" y2="250" ></line><line stroke="black" x1="562.5" x2="687.5" y1="375" y2="375" ></line><line stroke="black" x1="593.75" x2="656.25" y1="312.5" y2="312.5" ></line><line stroke="black" x1="593.75" x2="625" y1="312.5" y2="375" ></line><line stroke="black" x1="656.25" x2="625" y1="312.5" y2="375" ></line><g transform="translate(625,312.5)" ><g fill="transparent" ><g stroke="black" ><ellipse rx="10" ry="10" ></ellipse></g></g></g><line stroke="black" x1="625" x2="562.5" y1="500" y2="375" ></line><line stroke="black" x1="500" x2="562.5" y1="500" y2="375" ></line><line stroke="black" x1="500" x2="625" y1="500" y2="500" ></line><line stroke="black" x1="531.25" x2="593.75" y1="437.5" y2="437.5" ></line><line stroke="black" x1="531.25" x2="562.5" y1="437.5" y2="500" ></line><line stroke="black" x1="593.75" x2="562.5" y1="437.5" y2="500" ></line><g transform="translate(562.5,437.5)" ><g fill="transparent" ><g stroke="black" ><ellipse rx="10" ry="10" ></ellipse></g></g></g><line stroke="black" x1="750" x2="687.5" y1="500" y2="375" ></line><line stroke="black" x1="625" x2="687.5" y1="500" y2="375" ></line><line stroke="black" x1="625" x2="750" y1="500" y2="500" ></line><line stroke="black" x1="656.25" x2="718.75" y1="437.5" y2="437.5" ></line><line stroke="black" x1="656.25" x2="687.5" y1="437.5" y2="500" ></line><line stroke="black" x1="718.75" x2="687.5" y1="437.5" y2="500" ></line><g transform="translate(687.5,437.5)" ><g fill="transparent" ><g stroke="black" ><ellipse rx="10" ry="10" ></ellipse></g></g></g><g transform="translate(625,375)" ><g fill="transparent" ><g stroke="black" ><ellipse rx="20" ry="20" ></ellipse></g></g></g><g transform="translate(500,250)" ><g fill="transparent" ><g stroke="black" ><ellipse rx="30" ry="30" ></ellipse></g></g></g><line stroke="black" x1="500" x2="250" y1="1000" y2="500" ></line><line stroke="black" x1="0" x2="250" y1="1000" y2="500" ></line><line stroke="black" x1="0" x2="500" y1="1000" y2="1000" ></line><line stroke="black" x1="125" x2="375" y1="750" y2="750" ></line><line stroke="black" x1="125" x2="250" y1="750" y2="1000" ></line><line stroke="black" x1="375" x2="250" y1="750" y2="1000" ></line><line stroke="black" x1="375" x2="250" y1="750" y2="500" ></line><line stroke="black" x1="125" x2="250" y1="750" y2="500" ></line><line stroke="black" x1="125" x2="375" y1="750" y2="750" ></line><line stroke="black" x1="187.5" x2="312.5" y1="625" y2="625" ></line><line stroke="black" x1="187.5" x2="250" y1="625" y2="750" ></line><line stroke="black" x1="312.5" x2="250" y1="625" y2="750" ></line><line stroke="black" x1="312.5" x2="250" y1="625" y2="500" ></line><line stroke="black" x1="187.5" x2="250" y1="625" y2="500" ></line><line stroke="black" x1="187.5" x2="312.5" y1="625" y2="625" ></line><line stroke="black" x1="218.75" x2="281.25" y1="562.5" y2="562.5" ></line><line stroke="black" x1="218.75" x2="250" y1="562.5" y2="625" ></line><line stroke="black" x1="281.25" x2="250" y1="562.5" y2="625" ></line><g transform="translate(250,562.5)" ><g fill="transparent" ><g stroke="black" ><ellipse rx="10" ry="10" ></ellipse></g></g></g><line stroke="black" x1="250" x2="187.5" y1="750" y2="625" ></line><line stroke="black" x1="125" x2="187.5" y1="750" y2="625" ></line><line stroke="black" x1="125" x2="250" y1="750" y2="750" ></line><line stroke="black" x1="156.25" x2="218.75" y1="687.5" y2="687.5" ></line><line stroke="black" x1="156.25" x2="187.5" y1="687.5" y2="750" ></line><line stroke="black" x1="218.75" x2="187.5" y1="687.5" y2="750" ></line><g transform="translate(187.5,687.5)" ><g fill="transparent" ><g stroke="black" ><ellipse rx="10" ry="10" ></ellipse></g></g></g><line stroke="black" x1="375" x2="312.5" y1="750" y2="625" ></line><line stroke="black" x1="250" x2="312.5" y1="750" y2="625" ></line><line stroke="black" x1="250" x2="375" y1="750" y2="750" ></line><line stroke="black" x1="281.25" x2="343.75" y1="687.5" y2="687.5" ></line><line stroke="black" x1="281.25" x2="312.5" y1="687.5" y2="750" ></line><line stroke="black" x1="343.75" x2="312.5" y1="687.5" y2="750" ></line><g transform="translate(312.5,687.5)" ><g fill="transparent" ><g stroke="black" ><ellipse rx="10" ry="10" ></ellipse></g></g></g><g transform="translate(250,625)" ><g fill="transparent" ><g stroke="black" ><ellipse rx="20" ry="20" ></ellipse></g></g></g><line stroke="black" x1="250" x2="125" y1="1000" y2="750" ></line><line stroke="black" x1="0" x2="125" y1="1000" y2="750" ></line><line stroke="black" x1="0" x2="250" y1="1000" y2="1000" ></line><line stroke="black" x1="62.5" x2="187.5" y1="875" y2="875" ></line><line stroke="black" x1="62.5" x2="125" y1="875" y2="1000" ></line><line stroke="black" x1="187.5" x2="125" y1="875" y2="1000" ></line><line stroke="black" x1="187.5" x2="125" y1="875" y2="750" ></line><line stroke="black" x1="62.5" x2="125" y1="875" y2="750" ></line><line stroke="black" x1="62.5" x2="187.5" y1="875" y2="875" ></line><line stroke="black" x1="93.75" x2="156.25" y1="812.5" y2="812.5" ></line><line stroke="black" x1="93.75" x2="125" y1="812.5" y2="875" ></line><line stroke="black" x1="156.25" x2="125" y1="812.5" y2="875" ></line><g transform="translate(125,812.5)" ><g fill="transparent" ><g stroke="black" ><ellipse rx="10" ry="10" ></ellipse></g></g></g><line stroke="black" x1="125" x2="62.5" y1="1000" y2="875" ></line><line stroke="black" x1="0" x2="62.5" y1="1000" y2="875" ></line><line stroke="black" x1="0" x2="125" y1="1000" y2="1000" ></line><line stroke="black" x1="31.25" x2="93.75" y1="937.5" y2="937.5" ></line><line stroke="black" x1="31.25" x2="62.5" y1="937.5" y2="1000" ></line><line stroke="black" x1="93.75" x2="62.5" y1="937.5" y2="1000" ></line><g transform="translate(62.5,937.5)" ><g fill="transparent" ><g stroke="black" ><ellipse rx="10" ry="10" ></ellipse></g></g></g><line stroke="black" x1="250" x2="187.5" y1="1000" y2="875" ></line><line stroke="black" x1="125" x2="187.5" y1="1000" y2="875" ></line><line stroke="black" x1="125" x2="250" y1="1000" y2="1000" ></line><line stroke="black" x1="156.25" x2="218.75" y1="937.5" y2="937.5" ></line><line stroke="black" x1="156.25" x2="187.5" y1="937.5" y2="1000" ></line><line stroke="black" x1="218.75" x2="187.5" y1="937.5" y2="1000" ></line><g transform="translate(187.5,937.5)" ><g fill="transparent" ><g stroke="black" ><ellipse rx="10" ry="10" ></ellipse></g></g></g><g transform="translate(125,875)" ><g fill="transparent" ><g stroke="black" ><ellipse rx="20" ry="20" ></ellipse></g></g></g><line stroke="black" x1="500" x2="375" y1="1000" y2="750" ></line><line stroke="black" x1="250" x2="375" y1="1000" y2="750" ></line><line stroke="black" x1="250" x2="500" y1="1000" y2="1000" ></line><line stroke="black" x1="312.5" x2="437.5" y1="875" y2="875" ></line><line stroke="black" x1="312.5" x2="375" y1="875" y2="1000" ></line><line stroke="black" x1="437.5" x2="375" y1="875" y2="1000" ></line><line stroke="black" x1="437.5" x2="375" y1="875" y2="750" ></line><line stroke="black" x1="312.5" x2="375" y1="875" y2="750" ></line><line stroke="black" x1="312.5" x2="437.5" y1="875" y2="875" ></line><line stroke="black" x1="343.75" x2="406.25" y1="812.5" y2="812.5" ></line><line stroke="black" x1="343.75" x2="375" y1="812.5" y2="875" ></line><line stroke="black" x1="406.25" x2="375" y1="812.5" y2="875" ></line><g transform="translate(375,812.5)" ><g fill="transparent" ><g stroke="black" ><ellipse rx="10" ry="10" ></ellipse></g></g></g><line stroke="black" x1="375" x2="312.5" y1="1000" y2="875" ></line><line stroke="black" x1="250" x2="312.5" y1="1000" y2="875" ></line><line stroke="black" x1="250" x2="375" y1="1000" y2="1000" ></line><line stroke="black" x1="281.25" x2="343.75" y1="937.5" y2="937.5" ></line><line stroke="black" x1="281.25" x2="312.5" y1="937.5" y2="1000" ></line><line stroke="black" x1="343.75" x2="312.5" y1="937.5" y2="1000" ></line><g transform="translate(312.5,937.5)" ><g fill="transparent" ><g stroke="black" ><ellipse rx="10" ry="10" ></ellipse></g></g></g><line stroke="black" x1="500" x2="437.5" y1="1000" y2="875" ></line><line stroke="black" x1="375" x2="437.5" y1="1000" y2="875" ></line><line stroke="black" x1="375" x2="500" y1="1000" y2="1000" ></line><line stroke="black" x1="406.25" x2="468.75" y1="937.5" y2="937.5" ></line><line stroke="black" x1="406.25" x2="437.5" y1="937.5" y2="1000" ></line><line stroke="black" x1="468.75" x2="437.5" y1="937.5" y2="1000" ></line><g transform="translate(437.5,937.5)" ><g fill="transparent" ><g stroke="black" ><ellipse rx="10" ry="10" ></ellipse></g></g></g><g transform="translate(375,875)" ><g fill="transparent" ><g stroke="black" ><ellipse rx="20" ry="20" ></ellipse></g></g></g><g transform="translate(250,750)" ><g fill="transparent" ><g stroke="black" ><ellipse rx="30" ry="30" ></ellipse></g></g></g><line stroke="black" x1="1000" x2="750" y1="1000" y2="500" ></line><line stroke="black" x1="500" x2="750" y1="1000" y2="500" ></line><line stroke="black" x1="500" x2="1000" y1="1000" y2="1000" ></line><line stroke="black" x1="625" x2="875" y1="750" y2="750" ></line><line stroke="black" x1="625" x2="750" y1="750" y2="1000" ></line><line stroke="black" x1="875" x2="750" y1="750" y2="1000" ></line><line stroke="black" x1="875" x2="750" y1="750" y2="500" ></line><line stroke="black" x1="625" x2="750" y1="750" y2="500" ></line><line stroke="black" x1="625" x2="875" y1="750" y2="750" ></line><line stroke="black" x1="687.5" x2="812.5" y1="625" y2="625" ></line><line stroke="black" x1="687.5" x2="750" y1="625" y2="750" ></line><line stroke="black" x1="812.5" x2="750" y1="625" y2="750" ></line><line stroke="black" x1="812.5" x2="750" y1="625" y2="500" ></line><line stroke="black" x1="687.5" x2="750" y1="625" y2="500" ></line><line stroke="black" x1="687.5" x2="812.5" y1="625" y2="625" ></line><line stroke="black" x1="718.75" x2="781.25" y1="562.5" y2="562.5" ></line><line stroke="black" x1="718.75" x2="750" y1="562.5" y2="625" ></line><line stroke="black" x1="781.25" x2="750" y1="562.5" y2="625" ></line><g transform="translate(750,562.5)" ><g fill="transparent" ><g stroke="black" ><ellipse rx="10" ry="10" ></ellipse></g></g></g><line stroke="black" x1="750" x2="687.5" y1="750" y2="625" ></line><line stroke="black" x1="625" x2="687.5" y1="750" y2="625" ></line><line stroke="black" x1="625" x2="750" y1="750" y2="750" ></line><line stroke="black" x1="656.25" x2="718.75" y1="687.5" y2="687.5" ></line><line stroke="black" x1="656.25" x2="687.5" y1="687.5" y2="750" ></line><line stroke="black" x1="718.75" x2="687.5" y1="687.5" y2="750" ></line><g transform="translate(687.5,687.5)" ><g fill="transparent" ><g stroke="black" ><ellipse rx="10" ry="10" ></ellipse></g></g></g><line stroke="black" x1="875" x2="812.5" y1="750" y2="625" ></line><line stroke="black" x1="750" x2="812.5" y1="750" y2="625" ></line><line stroke="black" x1="750" x2="875" y1="750" y2="750" ></line><line stroke="black" x1="781.25" x2="843.75" y1="687.5" y2="687.5" ></line><line stroke="black" x1="781.25" x2="812.5" y1="687.5" y2="750" ></line><line stroke="black" x1="843.75" x2="812.5" y1="687.5" y2="750" ></line><g transform="translate(812.5,687.5)" ><g fill="transparent" ><g stroke="black" ><ellipse rx="10" ry="10" ></ellipse></g></g></g><g transform="translate(750,625)" ><g fill="transparent" ><g stroke="black" ><ellipse rx="20" ry="20" ></ellipse></g></g></g><line stroke="black" x1="750" x2="625" y1="1000" y2="750" ></line><line stroke="black" x1="500" x2="625" y1="1000" y2="750" ></line><line stroke="black" x1="500" x2="750" y1="1000" y2="1000" ></line><line stroke="black" x1="562.5" x2="687.5" y1="875" y2="875" ></line><line stroke="black" x1="562.5" x2="625" y1="875" y2="1000" ></line><line stroke="black" x1="687.5" x2="625" y1="875" y2="1000" ></line><line stroke="black" x1="687.5" x2="625" y1="875" y2="750" ></line><line stroke="black" x1="562.5" x2="625" y1="875" y2="750" ></line><line stroke="black" x1="562.5" x2="687.5" y1="875" y2="875" ></line><line stroke="black" x1="593.75" x2="656.25" y1="812.5" y2="812.5" ></line><line stroke="black" x1="593.75" x2="625" y1="812.5" y2="875" ></line><line stroke="black" x1="656.25" x2="625" y1="812.5" y2="875" ></line><g transform="translate(625,812.5)" ><g fill="transparent" ><g stroke="black" ><ellipse rx="10" ry="10" ></ellipse></g></g></g><line stroke="black" x1="625" x2="562.5" y1="1000" y2="875" ></line><line stroke="black" x1="500" x2="562.5" y1="1000" y2="875" ></line><line stroke="black" x1="500" x2="625" y1="1000" y2="1000" ></line><line stroke="black" x1="531.25" x2="593.75" y1="937.5" y2="937.5" ></line><line stroke="black" x1="531.25" x2="562.5" y1="937.5" y2="1000" ></line><line stroke="black" x1="593.75" x2="562.5" y1="937.5" y2="1000" ></line><g transform="translate(562.5,937.5)" ><g fill="transparent" ><g stroke="black" ><ellipse rx="10" ry="10" ></ellipse></g></g></g><line stroke="black" x1="750" x2="687.5" y1="1000" y2="875" ></line><line stroke="black" x1="625" x2="687.5" y1="1000" y2="875" ></line><line stroke="black" x1="625" x2="750" y1="1000" y2="1000" ></line><line stroke="black" x1="656.25" x2="718.75" y1="937.5" y2="937.5" ></line><line stroke="black" x1="656.25" x2="687.5" y1="937.5" y2="1000" ></line><line stroke="black" x1="718.75" x2="687.5" y1="937.5" y2="1000" ></line><g transform="translate(687.5,937.5)" ><g fill="transparent" ><g stroke="black" ><ellipse rx="10" ry="10" ></ellipse></g></g></g><g transform="translate(625,875)" ><g fill="transparent" ><g stroke="black" ><ellipse rx="20" ry="20" ></ellipse></g></g></g><line stroke="black" x1="1000" x2="875" y1="1000" y2="750" ></line><line stroke="black" x1="750" x2="875" y1="1000" y2="750" ></line><line stroke="black" x1="750" x2="1000" y1="1000" y2="1000" ></line><line stroke="black" x1="812.5" x2="937.5" y1="875" y2="875" ></line><line stroke="black" x1="812.5" x2="875" y1="875" y2="1000" ></line><line stroke="black" x1="937.5" x2="875" y1="875" y2="1000" ></line><line stroke="black" x1="937.5" x2="875" y1="875" y2="750" ></line><line stroke="black" x1="812.5" x2="875" y1="875" y2="750" ></line><line stroke="black" x1="812.5" x2="937.5" y1="875" y2="875" ></line><line stroke="black" x1="843.75" x2="906.25" y1="812.5" y2="812.5" ></line><line stroke="black" x1="843.75" x2="875" y1="812.5" y2="875" ></line><line stroke="black" x1="906.25" x2="875" y1="812.5" y2="875" ></line><g transform="translate(875,812.5)" ><g fill="transparent" ><g stroke="black" ><ellipse rx="10" ry="10" ></ellipse></g></g></g><line stroke="black" x1="875" x2="812.5" y1="1000" y2="875" ></line><line stroke="black" x1="750" x2="812.5" y1="1000" y2="875" ></line><line stroke="black" x1="750" x2="875" y1="1000" y2="1000" ></line><line stroke="black" x1="781.25" x2="843.75" y1="937.5" y2="937.5" ></line><line stroke="black" x1="781.25" x2="812.5" y1="937.5" y2="1000" ></line><line stroke="black" x1="843.75" x2="812.5" y1="937.5" y2="1000" ></line><g transform="translate(812.5,937.5)" ><g fill="transparent" ><g stroke="black" ><ellipse rx="10" ry="10" ></ellipse></g></g></g><line stroke="black" x1="1000" x2="937.5" y1="1000" y2="875" ></line><line stroke="black" x1="875" x2="937.5" y1="1000" y2="875" ></line><line stroke="black" x1="875" x2="1000" y1="1000" y2="1000" ></line><line stroke="black" x1="906.25" x2="968.75" y1="937.5" y2="937.5" ></line><line stroke="black" x1="906.25" x2="937.5" y1="937.5" y2="1000" ></line><line stroke="black" x1="968.75" x2="937.5" y1="937.5" y2="1000" ></line><g transform="translate(937.5,937.5)" ><g fill="transparent" ><g stroke="black" ><ellipse rx="10" ry="10" ></ellipse></g></g></g><g transform="translate(875,875)" ><g fill="transparent" ><g stroke="black" ><ellipse rx="20" ry="20" ></ellipse></g></g></g><g transform="translate(750,750)" ><g fill="transparent" ><g stroke="black" ><ellipse rx="30" ry="30" ></ellipse></g></g></g><g transform="translate(500,500)" ><g fill="transparent" ><g stroke="black" ><ellipse rx="40" ry="40" ></ellipse></g></g></g></svg>