<svg version="1.1" xmlns="http://www.w3.org/2000/svg"><g transform = "translate(44,10)" ><g fill = "rgb(25, 65, 80)" ><g transform = "rotate(2,1,1)" ><rect height = "2" width = "2" ></rect></g></g></g><g transform = "translate(69,10)" ><g fill = "rgb(25, 65, 80)" ><g transform = "rotate(3,1.5,1.5)" ><rect height = "3" width = "3" ></rect></g></g></g><g transform = "translate(96,10)" ><g fill = "rgb(25, 65, 80)" ><g transform = "rotate(4,2,2)" ><rect height = "4" width = "4" ></rect></g></g></g><g transform = "translate(125,10)" ><g fill = "rgb(25, 65, 80)" ><g transform = "rotate(5,2.5,2.5)" ><rect height = "5" width = "5" ></rect></g></g></g><g transform = "translate(156,10)" ><g fill = "rgb(25, 65, 80)" ><g transform = "rotate(6,3,3)" ><rect height = "6" width = "6" ></rect></g></g></g><g transform = "translate(189,10)" ><g fill = "rgb(25, 65, 80)" ><g transform = "rotate(7,3.5,3.5)" ><rect height = "7" width = "7" ></rect></g></g></g><g transform = "translate(224,10)" ><g fill = "rgb(25, 65, 80)" ><g transform = "rotate(8,4,4)" ><rect height = "8" width = "8" ></rect></g></g></g><g transform = "translate(261,10)" ><g fill = "rgb(25, 65, 80)" ><g transform = "rotate(9,4.5,4.5)" ><rect height = "9" width = "9" ></rect></g></g></g><g transform = "translate(300,10)" ><g fill = "rgb(25, 65, 80)" ><g transform = "rotate(10,5,5)" ><rect height = "10" width = "10" ></rect></g></g></g><g transform = "translate(341,10)" ><g fill = "rgb(25, 65, 80)" ><g transform = "rotate(11,5.5,5.5)" ><rect height = "11" width = "11" ></rect></g></g></g><g transform = "translate(384,10)" ><g fill = "rgb(25, 65, 80)" ><g transform = "rotate(12,6,6)" ><rect height = "12" width = "12" ></rect></g></g></g><g transform = "translate(429,10)" ><g fill = "rgb(25, 65, 80)" ><g transform = "rotate(13,6.5,6.5)" ><rect height = "13" width = "13" ></rect></g></g></g><g transform = "translate(476,10)" ><g fill = "rgb(25, 65, 80)" ><g transform = "rotate(14,7,7)" ><rect height = "14" width = "14" ></rect></g></g></g><g transform = "translate(525,10)" ><g fill = "rgb(25, 65, 80)" ><g transform = "rotate(15,7.5,7.5)" ><rect height = "15" width = "15" ></rect></g></g></g><g transform = "translate(576,10)" ><g fill = "rgb(25, 65, 80)" ><g transform = "rotate(16,8,8)" ><rect height = "16" width = "16" ></rect></g></g></g><g transform = "translate(629,10)" ><g fill = "rgb(25, 65, 80)" ><g transform = "rotate(17,8.5,8.5)" ><rect height = "17" width = "17" ></rect></g></g></g><g transform = "translate(684,10)" ><g fill = "rgb(25, 65, 80)" ><g transform = "rotate(18,9,9)" ><rect height = "18" width = "18" ></rect></g></g></g><g transform = "translate(741,10)" ><g fill = "rgb(25, 65, 80)" ><g transform = "rotate(19,9.5,9.5)" ><rect height = "19" width = "19" ></rect></g></g></g><g transform = "translate(800,10)" ><g fill = "rgb(25, 65, 80)" ><g transform = "rotate(20,10,10)" ><rect height = "20" width = "20" ></rect></g></g></g></svg>