<svg width="10000" height="10000" xmlns="http://www.w3.org/2000/svg"><g stroke="black" ><g fill="transparent" ><g transform="translate(500,500)" ><ellipse rx="20" ry="20" ></ellipse></g></g></g><g stroke="black" ><g fill="transparent" ><g transform="translate(500,500)" ><ellipse rx="30" ry="30" ></ellipse></g></g></g><g stroke="black" ><g fill="transparent" ><g transform="translate(500,500)" ><ellipse rx="40" ry="40" ></ellipse></g></g></g><g stroke="black" ><g fill="transparent" ><g transform="translate(500,500)" ><ellipse rx="50" ry="50" ></ellipse></g></g></g><g stroke="black" ><g fill="transparent" ><g transform="translate(500,500)" ><ellipse rx="60" ry="60" ></ellipse></g></g></g><g stroke="black" ><g fill="transparent" ><g transform="translate(500,500)" ><ellipse rx="70" ry="70" ></ellipse></g></g></g><g stroke="black" ><g fill="transparent" ><g transform="translate(500,500)" ><ellipse rx="80" ry="80" ></ellipse></g></g></g><g stroke="black" ><g fill="transparent" ><g transform="translate(500,500)" ><ellipse rx="90" ry="90" ></ellipse></g></g></g><g stroke="black" ><g fill="transparent" ><g transform="translate(500,500)" ><ellipse rx="100" ry="100" ></ellipse></g></g></g><g stroke="black" ><g fill="transparent" ><g transform="translate(500,500)" ><ellipse rx="110" ry="110" ></ellipse></g></g></g><g stroke="black" ><g fill="transparent" ><g transform="translate(500,500)" ><ellipse rx="120" ry="120" ></ellipse></g></g></g><g stroke="black" ><g fill="transparent" ><g transform="translate(500,500)" ><ellipse rx="130" ry="130" ></ellipse></g></g></g><g stroke="black" ><g fill="transparent" ><g transform="translate(500,500)" ><ellipse rx="140" ry="140" ></ellipse></g></g></g><g stroke="black" ><g fill="transparent" ><g transform="translate(500,500)" ><ellipse rx="150" ry="150" ></ellipse></g></g></g><g stroke="black" ><g fill="transparent" ><g transform="translate(500,500)" ><ellipse rx="160" ry="160" ></ellipse></g></g></g><g stroke="black" ><g fill="transparent" ><g transform="translate(500,500)" ><ellipse rx="170" ry="170" ></ellipse></g></g></g><g stroke="black" ><g fill="transparent" ><g transform="translate(500,500)" ><ellipse rx="180" ry="180" ></ellipse></g></g></g><g stroke="black" ><g fill="transparent" ><g transform="translate(500,500)" ><ellipse rx="190" ry="190" ></ellipse></g></g></g><g stroke="black" ><g fill="transparent" ><g transform="translate(500,500)" ><ellipse rx="200" ry="200" ></ellipse></g></g></g></svg>